<?xml version="1.0" standalone="no"?>
<!DOCTYPE svg PUBLIC "-//W3C//DTD SVG 20010904//EN"
 "http://www.w3.org/TR/2001/REC-SVG-20010904/DTD/svg10.dtd">
<svg version="1.0" xmlns="http://www.w3.org/2000/svg"
 width="144.000000pt" height="144.000000pt" viewBox="0 0 144.000000 144.000000"
 preserveAspectRatio="xMidYMid meet">

<g transform="translate(0.000000,144.000000) scale(0.100000,-0.100000)"
fill="#000000" stroke="none">
<path d="M329 1287 c-91 -26 -160 -99 -179 -193 -8 -36 -10 -171 -8 -406 3
-307 6 -358 21 -390 25 -55 71 -103 125 -129 l47 -24 389 3 c387 3 390 4 436
27 52 26 92 68 118 124 15 32 17 78 17 421 0 424 1 419 -64 493 -18 19 -53 46
-79 59 -46 23 -53 23 -412 25 -268 2 -377 -1 -411 -10z m587 -221 l-36 -44 0
-346 0 -346 -275 0 -275 0 0 390 0 390 311 0 311 0 -36 -44z m152 -10 l42 -53
0 -237 0 -236 -90 0 -90 0 0 236 0 236 42 54 c24 30 45 54 48 54 3 -1 24 -25
48 -54z m40 -649 l3 -77 -91 0 -90 0 0 75 0 74 73 4 c39 2 79 3 87 2 12 0 16
-17 18 -78z"/>
<path d="M472 863 l3 -68 148 -3 147 -3 0 71 0 70 -150 0 -151 0 3 -67z"/>
</g>
</svg>
